# xmcd
#
# Track frame offsets: 
#        150
#        15333
#        33319
#        68544
#        90265
#        109330
#        132749
#        153326
#        185736
#        205993
#        222532
#        248440
#        267393
#        283847
#        300358
#        316408
#        331108
#
# Disc length: 4770 seconds
#
# Revision: 0
# Processed by: cddbd v1.5.2PL0 Copyright (c) Steve Scherf et al.
# Submitted via: ExactAudioCopy v1.3
#
DISCID=ed12a011
DTITLE=Various Artist - Akella Presents - vol. 215 - Rockin' Blues  C
DTITLE=D2
DYEAR=2019
DGENRE=Blues
TTITLE0=Dov Hammer - Magic
TTITLE1=Mr Blues - Dreaming Again
TTITLE2=The Ripcords - King Bee
TTITLE3=Mike Zitto - Forty Days and Forty Nights
TTITLE4=8 Ball Aitken - Six Stringer
TTITLE5=The Moon Dogs - The Little Red Rooster
TTITLE6=Blues Connexion - When the Levee Breaks
TTITLE7=Big Mike Griffin - Born In Chicago
TTITLE8=Catfish - Never Go Back
TTITLE9=Virgil Caine - Cheap Whisky
TTITLE10=Dave Steffen Band - Let's Go
TTITLE11=Blues Whale - Trouble
TTITLE12=Lee Holmes - Piece Of Cake
TTITLE13=CG and The Hammer - A Day Late And A Dollar Short
TTITLE14=William Delray Floyd - Jealousy
TTITLE15=Sammy Eubanks - It's All Blues To Me
TTITLE16=Jimmy Barnes - My Demon (God Help Me)
EXTD=
EXTT0=
EXTT1=
EXTT2=
EXTT3=
EXTT4=
EXTT5=
EXTT6=
EXTT7=
EXTT8=
EXTT9=
EXTT10=
EXTT11=
EXTT12=
EXTT13=
EXTT14=
EXTT15=
EXTT16=
PLAYORDER=
